<svg version="1.1" id="Layer_1" xmlns="http://www.w3.org/2000/svg" xmlns:xlink="http://www.w3.org/1999/xlink" x="0px" y="0px"
	 width="100%" viewBox="0 0 512 512" enable-background="new 0 0 512 512" xml:space="preserve">
<path fill="#000000" opacity="1.000000" stroke="none" 
	d="
M465.114929,419.315125 
	C451.520142,426.627563 438.327148,422.542023 432.427429,409.090576 
	C430.941925,405.703674 428.883301,405.318756 425.844910,405.325684 
	C401.347107,405.381470 376.848328,405.251648 352.351929,405.444092 
	C347.968079,405.478546 344.882599,404.124725 341.877625,401.024414 
	C332.136078,390.973633 322.147247,381.162292 312.235992,371.276489 
	C309.687500,368.734497 295.802673,367.025848 292.791626,368.780609 
	C291.381256,369.602539 291.364288,370.915100 291.360779,372.252258 
	C291.344696,378.418335 291.408386,384.585419 291.311707,390.750092 
	C291.276245,393.011078 292.453979,394.462921 293.900848,395.906036 
	C303.340485,405.320740 312.830414,414.686798 322.141846,424.226929 
	C324.376434,426.516388 326.372253,426.607574 329.235138,425.683716 
	C342.233673,421.489014 355.096985,428.311401 358.274078,440.875061 
	C361.581360,453.953491 353.703613,465.998810 340.135529,468.609497 
	C323.984497,471.717255 309.961121,455.071808 315.865448,439.322388 
	C317.573639,434.765961 316.760681,432.170288 313.478271,429.010864 
	C303.754883,419.651642 294.373596,409.937958 284.749573,400.473724 
	C282.561493,398.322021 281.569092,396.047729 281.639862,392.972473 
	C281.797028,386.143463 281.600861,379.306793 281.714142,372.476013 
	C281.763214,369.517517 280.698669,368.187714 277.642395,368.304413 
	C273.814758,368.450623 269.974487,368.450409 266.145813,368.325134 
	C263.107269,368.225708 262.017242,369.589417 262.025818,372.514923 
	C262.079437,390.846252 262.129181,409.178436 261.988831,427.508881 
	C261.961761,431.039368 264.193298,431.826294 266.647186,433.024475 
	C275.424774,437.310364 280.213135,445.984192 279.245117,455.489410 
	C278.322876,464.545288 271.658173,472.248199 262.630676,474.691956 
	C251.903671,477.595764 240.716568,471.994507 236.472931,461.595093 
	C232.062408,450.786682 235.930649,438.790161 246.214157,433.822510 
	C250.960434,431.529663 252.127747,428.621948 252.057251,423.766937 
	C251.817780,407.271973 251.867920,390.769836 252.064789,374.273499 
	C252.118179,369.801178 250.817856,368.166626 246.100052,368.230011 
	C232.322815,368.415100 231.562439,368.273438 232.541214,381.722076 
	C233.363205,393.016296 230.259262,401.335510 221.451111,408.591858 
	C213.385101,415.236816 206.540665,423.350800 198.989914,430.643433 
	C196.709991,432.845428 196.452866,434.746033 197.589249,437.648834 
	C202.753479,450.840240 196.359528,464.461243 183.524475,468.070465 
	C170.432510,471.751862 157.915573,463.793060 155.182587,450.049469 
	C152.027649,434.183960 168.119827,420.317291 184.010971,425.478943 
	C187.735535,426.688751 190.024689,426.232300 192.727890,423.422546 
	C201.507111,414.297089 210.530197,405.403778 219.563263,396.526794 
	C221.731583,394.395874 222.842087,392.179596 222.723175,389.064636 
	C222.513580,383.573059 222.578308,378.066071 222.693665,372.569000 
	C222.755768,369.609497 221.599121,368.261322 218.592621,368.351318 
	C215.429520,368.446075 212.247284,368.531097 209.098221,368.292755 
	C205.797012,368.042816 203.468170,369.327087 201.208466,371.630493 
	C191.288940,381.742126 181.163971,391.652588 171.271683,401.790344 
	C168.746292,404.378357 166.125153,405.451813 162.490631,405.431030 
	C138.160156,405.291748 113.828041,405.431305 89.497673,405.281677 
	C85.409904,405.256561 83.011856,406.022827 81.149925,410.295837 
	C76.938492,419.960876 66.219353,424.790649 56.319111,422.416901 
	C45.886288,419.915405 38.616787,410.768738 38.782738,400.352112 
	C38.946667,390.062775 46.463940,380.888245 56.407574,378.841766 
	C66.876129,376.687225 77.038872,381.720428 81.417473,391.657715 
	C82.785667,394.762817 84.510460,395.787384 87.801155,395.771301 
	C111.798553,395.653961 135.796783,395.709106 159.794739,395.697296 
	C161.446182,395.696472 163.240387,395.958557 164.542603,394.646393 
	C172.944122,386.180237 181.307663,377.676422 190.524734,368.332367 
	C185.426392,368.332367 181.331589,368.347534 177.236938,368.329803 
	C158.056610,368.246643 143.835007,354.038757 143.753433,334.769104 
	C143.685745,318.782013 143.739563,302.794434 143.739563,286.466248 
	C141.418671,286.756439 140.459335,288.426086 139.269104,289.608215 
	C129.218887,299.589996 119.102516,309.510010 109.267952,319.701355 
	C106.095642,322.988739 102.759346,324.618469 98.253525,324.110352 
	C96.442474,323.906128 94.571472,324.230530 92.761253,324.022583 
	C86.876640,323.346710 82.817497,324.487579 79.853294,330.810577 
	C75.837303,339.377197 64.955147,343.079926 55.825932,340.624329 
	C45.569836,337.865601 38.977749,329.583710 38.778355,319.206757 
	C38.594936,309.661011 45.120834,300.758728 54.507282,297.750244 
	C63.893154,294.741943 75.001167,297.798645 79.270866,306.595123 
	C82.734169,313.730194 87.435425,314.205902 93.924622,314.135223 
	C98.964928,314.080292 102.644821,312.759857 106.197304,309.069397 
	C117.405449,297.425873 128.803940,285.950745 140.500443,274.800323 
	C144.507217,270.980591 143.720917,266.757904 143.536362,262.376709 
	C143.453278,260.403900 141.675415,260.279205 140.135117,260.277710 
	C122.136803,260.260284 104.138206,260.307098 86.140358,260.210968 
	C82.987000,260.194122 82.459366,262.417236 81.456909,264.506805 
	C76.472549,274.896484 65.511734,279.874268 54.789906,276.671326 
	C45.106342,273.778534 38.276237,264.261993 38.797142,254.388275 
	C39.351101,243.888077 46.566288,235.587204 57.023529,233.419327 
	C66.803169,231.391922 77.228012,236.385880 81.293427,245.838806 
	C83.016869,249.846207 85.279427,250.748795 89.207245,250.703491 
	C104.870605,250.522797 120.537636,250.674942 136.201797,250.534851 
	C138.646637,250.512985 142.444244,252.128372 143.252151,248.817947 
	C144.185181,244.994705 145.071442,240.536118 141.531067,237.055573 
	C138.085190,233.667923 134.676193,230.242706 131.258347,226.826630 
	C122.300758,217.873779 113.355995,208.908066 104.387169,199.966492 
	C101.255325,196.844147 88.124603,194.743317 84.199562,196.693222 
	C82.154785,197.709015 82.047737,199.958221 81.131378,201.668274 
	C76.154259,210.956284 66.686272,215.466171 56.424900,213.335846 
	C46.737587,211.324692 39.575096,202.998093 38.809025,192.856918 
	C38.088570,183.319595 44.135269,174.165985 53.479561,170.648346 
	C64.280952,166.582199 76.563286,171.585663 81.418541,182.486542 
	C82.908112,185.830872 84.790779,187.296478 88.172585,186.671127 
	C100.846397,184.327499 109.890404,189.554626 117.878815,199.152298 
	C125.298035,208.066116 134.008682,215.905060 142.212158,224.279968 
	C144.406723,222.209717 143.666275,220.283218 143.675568,218.604660 
	C143.752975,204.606232 143.716080,190.607239 143.741974,176.608459 
	C143.779434,156.341629 158.014938,142.107758 178.402908,141.937592 
	C181.824127,141.909042 185.245773,141.933563 189.324097,141.933563 
	C187.122284,137.266403 183.779434,134.940979 181.032349,132.189148 
	C175.392426,126.539513 170.780991,118.954651 163.674805,115.920967 
	C156.558853,112.883133 147.903198,115.106270 139.925949,115.043129 
	C123.095062,114.909920 106.261444,115.086319 89.431396,114.906242 
	C85.336479,114.862419 82.891319,115.764954 80.961143,119.908142 
	C76.440453,129.611938 65.896896,134.184891 55.947701,131.597351 
	C45.531403,128.888321 38.447346,119.648018 38.784103,109.209496 
	C39.113384,99.002846 46.734837,90.008415 56.801476,87.946365 
	C66.784157,85.901512 77.106255,91.044647 81.401062,100.761330 
	C82.904747,104.163322 84.922356,104.954430 88.270882,104.942314 
	C112.768456,104.853638 137.266953,104.975082 161.764023,104.833809 
	C165.926712,104.809807 168.978653,106.060684 171.879135,109.052536 
	C181.273773,118.743134 190.915726,128.193787 200.449249,137.750000 
	C203.966980,141.276093 216.557312,143.659637 220.940842,141.658783 
	C222.695129,140.858047 222.640320,139.364105 222.645248,137.867050 
	C222.664474,132.034286 222.578949,126.199814 222.698730,120.369408 
	C222.748779,117.933220 221.567108,116.310684 219.989731,114.737869 
	C210.431259,105.207130 200.763443,95.780266 191.427521,86.035713 
	C188.736816,83.227226 186.575150,84.464958 183.894943,85.309952 
	C171.994522,89.061836 159.265030,82.194695 155.830292,70.265892 
	C152.335464,58.128387 159.069656,46.074818 171.339554,42.505772 
	C183.078903,39.091049 195.464890,45.977345 198.694351,57.944004 
	C200.065430,63.024502 200.018433,68.283501 197.586578,73.060707 
	C196.074158,76.031799 196.767288,77.860596 198.948532,80.009666 
	C209.038696,89.951004 218.952545,100.071564 229.065018,109.989784 
	C231.390350,112.270439 232.467667,114.628265 232.365921,117.897881 
	C232.169022,124.224480 232.456436,130.566177 232.258163,136.892685 
	C232.146835,140.445206 233.196167,142.071457 237.023926,141.980392 
	C255.054199,141.551483 251.651962,144.619171 251.917450,127.496696 
	C252.100861,115.667282 251.833511,103.831024 252.002350,92.001175 
	C252.057312,88.150177 251.310669,85.857101 247.271835,84.001694 
	C235.299896,78.501884 231.120880,63.756088 237.785110,52.588024 
	C244.499283,41.336212 259.180542,38.235394 269.975311,45.789139 
	C280.564911,53.199310 282.458313,68.243179 274.109192,78.457619 
	C272.059052,80.965828 269.555603,83.017822 266.602661,84.122116 
	C263.062164,85.446152 261.934296,87.582634 261.976440,91.279411 
	C262.147369,106.276108 262.170990,121.277809 261.957733,136.273514 
	C261.894989,140.685730 263.453278,142.008072 267.760498,142.021332 
	C281.686279,142.064194 282.384918,142.162628 281.453674,128.111557 
	C280.742035,117.374001 283.654480,109.481995 291.985352,102.522186 
	C300.264465,95.605598 307.387665,87.315468 315.150604,79.764191 
	C317.223816,77.747505 317.713348,76.134789 316.515137,73.279472 
	C312.778900,64.376038 313.804688,55.831566 320.510864,48.692905 
	C326.733795,42.068611 334.609436,40.016945 343.371704,42.755112 
	C352.803040,45.702366 357.855896,52.524704 359.098724,62.114578 
	C361.062866,77.270134 345.432739,90.023735 330.418213,85.265511 
	C326.282471,83.954857 323.885315,84.582550 320.977509,87.628548 
	C312.349396,96.666695 303.441437,105.442131 294.497284,114.171051 
	C292.151733,116.460129 291.141144,118.856140 291.279510,122.109955 
	C291.491699,127.100479 291.521606,132.116058 291.272919,137.103256 
	C291.082764,140.917023 292.765686,141.684631 296.256195,142.041214 
	C305.151062,142.949905 312.080200,140.704422 318.156403,133.514175 
	C325.337280,125.016716 333.966553,117.760086 341.597900,109.618736 
	C345.001862,105.987297 348.619568,104.769836 353.462311,104.808884 
	C377.292114,105.001083 401.124603,104.833725 424.955200,104.968307 
	C428.881378,104.990479 431.163818,104.070648 432.935150,100.100555 
	C437.128021,90.702980 447.506622,85.925507 457.446198,88.023064 
	C467.554504,90.156227 474.988922,99.068977 475.275970,109.398369 
	C475.552948,119.362701 468.718597,128.533142 458.892151,131.382629 
	C449.032928,134.241623 438.380157,130.407242 433.761902,121.061562 
	C431.215820,115.909302 428.145905,114.833000 422.953094,114.890083 
	C400.291107,115.139198 377.624542,115.050461 354.960327,114.941025 
	C351.546722,114.924538 348.963928,115.844452 346.553406,118.326233 
	C339.250946,125.844658 331.748444,133.168808 323.884918,141.006180 
	C328.238892,142.621063 332.165009,141.763077 335.974091,141.901291 
	C348.871490,142.369263 359.172485,147.395508 365.883362,158.746536 
	C369.008911,164.033173 370.250153,169.864120 370.258698,175.965271 
	C370.278320,189.964050 370.269592,203.962845 370.272278,217.961639 
	C370.272614,219.772278 370.272339,221.582916 370.272339,223.793076 
	C372.868469,223.304306 373.989227,221.550995 375.312744,220.238312 
	C385.133423,210.497910 394.984894,200.785446 404.625824,190.868912 
	C407.507202,187.905182 410.466949,186.081146 414.686401,186.667618 
	C415.994385,186.849396 417.352814,186.629883 418.681458,186.707932 
	C425.545563,187.111099 431.119873,187.200378 434.989014,178.872070 
	C439.193878,169.821091 450.897644,167.189133 460.341614,170.616974 
	C469.764191,174.037064 476.086975,183.615891 475.227600,193.168839 
	C474.320282,203.254440 467.139038,211.353577 457.304230,213.383057 
	C447.241638,215.459564 437.186707,210.887222 432.950592,201.286438 
	C431.081940,197.051254 428.696564,196.562851 424.685211,196.154114 
	C416.461243,195.316101 410.654816,198.159958 405.120544,204.239548 
	C395.483276,214.826385 385.155182,224.806778 374.777740,234.685318 
	C371.118866,238.168274 369.930176,241.836838 370.187927,246.629059 
	C370.355438,249.742355 371.623657,250.629868 374.483276,250.622482 
	C391.814880,250.577682 409.147400,250.549576 426.478027,250.700729 
	C430.044891,250.731827 431.257111,248.796875 432.545624,246.000244 
	C436.460968,237.502167 445.697845,232.092392 454.295013,232.926773 
	C464.207245,233.888779 471.985931,240.414124 474.373779,249.770401 
	C477.192993,260.816986 471.429626,272.048523 460.855988,276.113525 
	C450.256104,280.188629 438.038391,275.911713 433.254913,265.524261 
	C431.143402,260.939026 428.543915,260.090088 424.110718,260.154633 
	C408.948517,260.375427 393.780151,260.153076 378.616730,260.326447 
	C375.884979,260.357666 371.655548,258.533356 370.687744,262.180573 
	C369.594788,266.299347 369.354706,270.810150 373.357574,274.608398 
	C383.025299,283.781952 392.286346,293.384033 401.711639,302.813080 
	C402.418518,303.520264 403.262177,304.133728 403.814667,304.945587 
	C409.305817,313.014526 417.006897,315.270142 426.340057,314.061096 
	C429.238159,313.685669 431.080780,313.188873 432.435791,310.185730 
	C436.799774,300.513733 446.057220,295.442963 455.824677,296.848267 
	C465.942810,298.304047 473.392639,305.878845 475.079895,316.426636 
	C476.610443,325.994629 470.037231,336.508514 460.345764,339.993988 
	C450.262604,343.620361 438.747498,340.132446 434.105988,330.530670 
	C431.229126,324.579376 427.417297,323.275208 421.973206,324.123199 
	C412.646210,325.576050 406.002686,321.946594 399.867310,314.977600 
	C391.095001,305.013336 381.377625,295.881104 372.093506,286.423767 
	C369.492249,288.372406 370.327606,290.358185 370.317627,292.015747 
	C370.234528,305.847382 370.023071,319.684875 370.317047,333.510681 
	C370.770264,354.828217 353.452820,369.796356 335.543945,368.374573 
	C331.990723,368.092499 328.395905,368.333893 324.820282,368.333893 
	C324.686340,368.782959 324.552399,369.232025 324.418457,369.681061 
	C332.758972,377.996429 341.088104,386.323273 349.450745,394.616302 
	C350.913513,396.066956 352.879578,395.699738 354.684235,395.700928 
	C378.515564,395.716675 402.347107,395.655975 426.177887,395.769897 
	C429.455292,395.785583 431.174225,394.785553 432.577484,391.686096 
	C437.012970,381.889160 445.939575,377.269470 456.621613,378.722504 
	C465.791748,379.969879 473.390900,387.443970 474.927979,397.388824 
	C476.333344,406.481445 472.558807,413.605652 465.114929,419.315125 
M153.377167,335.991943 
	C156.061066,351.934937 164.093201,358.708313 180.258804,358.706421 
	C231.576126,358.700378 282.896271,358.410858 334.208893,358.902710 
	C347.799469,359.032959 360.847656,349.926331 360.754089,332.496490 
	C360.476837,280.847412 360.663025,229.195953 360.644653,177.545425 
	C360.638977,161.592133 351.158081,152.042343 335.168640,152.028091 
	C283.019470,151.981598 230.870255,151.982727 178.721085,152.009064 
	C162.847015,152.017075 153.359024,161.621307 153.353592,177.631226 
	C153.335770,230.114822 153.353180,282.598419 153.377167,335.991943 
M246.500412,446.117035 
	C243.260025,451.457825 243.620560,456.593323 247.604523,461.354736 
	C250.797180,465.170349 256.202515,466.606384 260.745850,465.092896 
	C265.841888,463.395264 269.415131,458.760681 269.644287,453.551331 
	C269.870392,448.411133 266.708557,443.636414 261.610077,441.418823 
	C256.438751,439.169525 251.835876,440.452148 246.500412,446.117035 
M456.359375,306.991150 
	C449.113831,305.500763 443.446381,308.331299 441.034210,314.645111 
	C438.800201,320.492432 441.241852,326.956390 446.833618,329.998627 
	C452.484222,333.072845 458.950348,331.655884 462.843445,326.490356 
	C468.002686,319.644714 465.643005,311.769958 456.359375,306.991150 
M53.387310,265.208527 
	C61.150021,269.680542 68.563393,268.101227 72.256493,261.188782 
	C75.693314,254.756012 73.101204,247.087173 66.429123,243.948288 
	C61.073284,241.428619 54.919731,242.914825 51.219025,247.621811 
	C47.068176,252.901306 47.601883,258.609650 53.387310,265.208527 
M465.579468,109.611435 
	C465.258453,108.324379 465.052399,106.994995 464.596680,105.757561 
	C462.564362,100.239212 456.961426,96.746246 451.278870,97.374268 
	C445.805725,97.979141 441.046478,102.664215 440.358124,108.124878 
	C439.613007,114.035667 442.881012,119.266617 448.328888,121.709160 
	C454.821350,124.620033 464.662323,120.096817 465.579468,109.611435 
M70.750290,310.809174 
	C68.893456,308.805084 66.642090,307.421356 64.004585,306.750427 
	C59.378380,305.573547 55.386200,306.935791 52.221779,310.327545 
	C49.263798,313.497955 47.716301,317.227142 48.923462,321.728729 
	C50.365475,327.106110 53.927044,330.423950 59.193363,331.455200 
	C64.182999,332.432281 68.407463,330.399231 71.315224,326.241028 
	C74.736816,321.348053 74.615364,316.310242 70.750290,310.809174 
M56.129971,98.415215 
	C54.304359,99.294701 52.757599,100.526474 51.477852,102.096024 
	C47.271515,107.254913 47.623829,114.102531 52.336674,118.782898 
	C57.052486,123.466202 63.936050,123.835983 69.055618,119.681038 
	C73.604805,115.989021 75.049538,109.504913 72.467865,104.366585 
	C69.610985,98.680511 63.785347,96.361702 56.129971,98.415215 
M324.265747,63.602859 
	C324.897125,72.417480 331.380615,78.046112 338.978333,76.375565 
	C345.187042,75.010429 349.766022,69.387878 349.440826,63.528473 
	C349.098480,57.359699 343.688599,51.815556 337.585724,51.379143 
	C330.892120,50.900482 325.815491,55.260124 324.265747,63.602859 
M265.656067,54.842304 
	C264.401337,54.039688 263.220490,53.075005 261.878754,52.463192 
	C256.739471,50.119778 250.516953,51.749905 247.115479,56.216702 
	C243.519028,60.939564 243.433502,66.798515 246.892609,71.485962 
	C250.246628,76.030991 256.348663,77.735222 261.566467,75.584183 
	C269.717957,72.223732 271.687958,63.579395 265.656067,54.842304 
M49.960468,406.390747 
	C54.198807,412.371155 58.578377,414.330627 64.224571,412.772675 
	C69.478531,411.322937 73.244759,406.949951 73.680595,401.793152 
	C74.119492,396.600159 71.497871,391.700043 66.857727,389.515503 
	C62.105133,387.278015 57.459927,387.643768 53.246262,390.879486 
	C49.000286,394.139954 47.754467,399.515991 49.960468,406.390747 
M460.772095,410.343109 
	C465.207062,406.381836 466.672150,401.567047 464.498322,395.976746 
	C462.642883,391.205170 458.950684,388.652344 453.835205,388.236267 
	C448.467682,387.799683 444.454834,390.047516 441.811981,394.639832 
	C439.046844,399.444641 439.947876,405.388428 443.861908,409.339935 
	C448.350250,413.871368 453.499084,414.319305 460.772095,410.343109 
M348.534119,450.924286 
	C350.511688,445.217041 349.048676,440.361145 344.417694,436.714478 
	C340.280853,433.456879 335.497833,433.149109 330.821594,435.533356 
	C325.974152,438.004913 323.646515,442.988953 324.353210,448.482849 
	C325.018616,453.655792 329.016876,457.815277 334.365631,458.899109 
	C339.941162,460.028870 344.627838,457.572113 348.534119,450.924286 
M185.199707,54.238159 
	C180.412674,50.773457 175.438019,50.170139 170.400513,53.568462 
	C166.211288,56.394527 164.163147,60.470520 164.832901,65.508636 
	C165.606537,71.328018 169.866379,75.500603 175.533707,76.504021 
	C180.137451,77.319122 185.690842,74.553589 188.154602,70.218895 
	C190.983566,65.241707 190.169205,59.982254 185.199707,54.238159 
M445.752930,201.948090 
	C450.856781,205.008926 456.003876,204.839233 460.644043,201.315063 
	C464.415161,198.450974 466.252045,194.359497 465.205902,189.469498 
	C463.948120,183.590195 459.889771,179.801880 454.477509,179.249298 
	C448.587921,178.648010 443.851746,181.212921 441.430664,186.315048 
	C438.922607,191.600433 440.115875,196.491379 445.752930,201.948090 
M54.462421,202.281158 
	C62.521694,205.813370 69.705528,203.427368 72.779671,196.197327 
	C75.440475,189.939407 72.518440,182.914078 66.088577,180.110214 
	C60.680389,177.751862 53.794895,179.739914 50.637787,184.571335 
	C46.876530,190.327301 47.980831,196.250595 54.462421,202.281158 
M465.201324,253.196564 
	C463.978302,247.316910 460.317200,243.783188 454.484741,242.880676 
	C449.480804,242.106369 445.346161,244.100494 442.446198,248.256897 
	C439.408936,252.610031 439.581299,258.496399 442.669037,262.728210 
	C445.832550,267.064026 451.861847,268.968292 456.909973,267.226166 
	C462.094055,265.437103 465.280029,260.449554 465.201324,253.196564 
M188.285568,452.555023 
	C188.758667,450.982910 189.492050,449.437836 189.658432,447.833893 
	C190.278397,441.856873 186.722946,436.424530 181.260910,434.696320 
	C175.751129,432.952972 169.782639,434.999756 166.819092,439.648834 
	C163.593948,444.708313 164.122833,450.952423 168.135574,455.190796 
	C173.645615,461.010712 182.116577,460.155731 188.285568,452.555023 
z"/>
<path fill="#000000" opacity="1.000000" stroke="none" 
	d="
M261.647034,297.200226 
	C259.887390,291.934906 258.127075,287.082764 256.611694,282.155334 
	C255.685913,279.145111 253.926437,277.903473 250.778427,277.932129 
	C239.956024,278.030640 229.131302,278.043579 218.309357,277.921051 
	C215.108871,277.884796 213.500656,279.206604 212.555420,282.183258 
	C209.685547,291.220703 206.351974,300.120026 203.759720,309.232666 
	C202.456558,313.813660 200.134232,315.187225 195.588684,315.123596 
	C184.530075,314.968719 184.528793,315.158142 188.051651,304.818542 
	C199.800537,270.335419 211.617874,235.875259 223.204926,201.337830 
	C224.587860,197.215698 226.410599,195.516815 230.915970,195.584930 
	C244.405029,195.788818 244.433929,195.593506 248.852814,208.536789 
	C260.191803,241.749466 271.511047,274.968872 282.812561,308.194305 
	C283.393158,309.901154 284.334167,311.553040 283.951996,314.113739 
	C279.194916,315.706970 274.119141,315.182709 269.094879,314.595398 
	C267.162567,314.369537 266.809296,312.362122 266.268829,310.807220 
	C264.739319,306.406738 263.253021,301.991241 261.647034,297.200226 
M227.930161,234.291351 
	C224.626724,244.102890 221.323303,253.914413 217.902817,264.073608 
	C229.471237,264.073608 239.934647,264.073608 251.028885,264.073608 
	C245.797287,246.670746 239.114517,230.551041 234.579315,212.198959 
	C232.158417,220.274231 230.170563,226.904968 227.930161,234.291351 
z"/>
<path fill="#000000" opacity="1.000000" stroke="none" 
	d="
M304.268555,195.741669 
	C317.334717,195.612183 317.336578,195.612183 317.336182,208.353577 
	C317.335083,241.635864 317.337219,274.918152 317.326019,308.200439 
	C317.323761,314.948273 317.299377,314.948303 310.813965,315.015839 
	C300.852203,315.119598 300.846130,315.119568 300.846436,304.976105 
	C300.847443,270.695374 300.829529,236.414551 300.907959,202.133987 
	C300.913422,199.741043 299.746643,196.472183 304.268555,195.741669 
z"/>
</svg>